<?xml version="1.0" ?><svg id="Layer_1" style="enable-background:new 0 0 24 24;" version="1.1" viewBox="0 0 24 24" xml:space="preserve" xmlns="http://www.w3.org/2000/svg" xmlns:xlink="http://www.w3.org/1999/xlink"><path d="M21.707,15.293l-3-3c-0.137-0.137-0.311-0.232-0.501-0.272l-1.585-0.334l2.643-0.723  c0.232-0.064,0.434-0.209,0.568-0.41l2-3c0.306-0.459,0.182-1.081-0.277-1.387c-0.46-0.308-1.08-0.182-1.387,0.277l-1.793,2.689  l-2.65,0.725l2.939-2.612C18.878,7.058,19,6.786,19,6.5V1c0-0.552-0.448-1-1-1c-0.552,0-1,0.448-1,1v5.051l-3.634,3.23  c0.172-0.512,0.194-1.135-0.284-1.629c-0.191-0.198-0.507-0.203-0.707-0.012c-0.198,0.192-0.204,0.509-0.012,0.707  c0.183,0.189,0.111,0.49,0.014,0.717c-0.248-0.047-0.506-0.047-0.754,0c-0.096-0.226-0.169-0.527,0.014-0.717  c0.192-0.198,0.187-0.515-0.012-0.707c-0.198-0.191-0.515-0.187-0.707,0.012c-0.485,0.501-0.455,1.134-0.276,1.65L7,6.052V1  c0-0.552-0.448-1-1-1C5.448,0,5,0.448,5,1v5.5c0,0.285,0.122,0.557,0.334,0.746l3.017,2.692L5.189,9.142L3.895,6.553  C3.648,6.059,3.048,5.858,2.553,6.106C2.059,6.352,1.859,6.953,2.106,7.447l1.5,3c0.13,0.261,0.368,0.451,0.65,0.522l2.976,0.749  l-1.438,0.303c-0.19,0.04-0.364,0.134-0.501,0.272l-3,3c-0.391,0.391-0.391,1.023,0,1.414C2.488,16.902,2.744,17,3,17  c0.256,0,0.512-0.098,0.707-0.293l2.79-2.79l2.218-0.467l-3.354,2.78C5.133,16.42,5,16.702,5,17v6c0,0.552,0.448,1,1,1  c0.552,0,1-0.448,1-1v-5.53l1.221-1.012C8.08,17.016,8,17.55,8,18c0,2.206,1.794,4,4,4c2.206,0,4-1.794,4-4  c0-0.45-0.079-0.984-0.221-1.542L17,17.47V23c0,0.552,0.448,1,1,1c0.552,0,1-0.448,1-1v-6c0-0.298-0.133-0.58-0.362-0.77  l-3.354-2.78l2.218,0.467l2.79,2.79C20.488,16.902,20.744,17,21,17c0.256,0,0.512-0.098,0.707-0.293  C22.098,16.316,22.098,15.684,21.707,15.293z M13,17h-0.5v1.5c0,0.276-0.224,0.5-0.5,0.5c-0.276,0-0.5-0.224-0.5-0.5V17H11  c-0.276,0-0.5-0.224-0.5-0.5S10.724,16,11,16h0.5v-0.5c0-0.276,0.224-0.5,0.5-0.5c0.276,0,0.5,0.224,0.5,0.5V16H13  c0.276,0,0.5,0.224,0.5,0.5S13.277,17,13,17z" id="XMLID_18_" style="fill:#303C42;"/><g/><g/><g/><g/><g/><g/><g/><g/><g/><g/><g/><g/><g/><g/><g/></svg>